# xmcd
#
# Track frame offsets:
#	150
#	12846
#	22709
#	35617
#	47428
#	59082
#	70375
#	82926
#	92721
#	104028
#	117435
#	129242
#	138782
#	151774
#	164155
#	176767
#	187435
#	199232
#	212612
#	227191
#	240252
#	251236
#	266132
#	276922
#	289546
#	300283
#	311572
#	325058
#	339051
#	350801
#
# Disc length: 4845 seconds
#
# Revision: 0
# Processed by: cddbd v1.4PL0 Copyright (c) Steve Scherf et al.
# Submitted via: EasyCDDAExtractor 4.6.9.1
#
DISCID=b512eb1e
DTITLE=Ernest Tubb - Another Story - CD 3
DYEAR=1999
DGENRE=Country
TTITLE0=Ernest Tubb - Another Story - CD 3 - 01 - If I Ever Stop Hurtin
TTITLE1=Ernest Tubb - Another Story - CD 3 - 02 - Just Pack Up And Go
TTITLE2=Ernest Tubb - Another Story - CD 3 - 03 - I Threw Away The Rose
TTITLE3=Ernest Tubb - Another Story - CD 3 - 04 - Send Me The Pillow You Dream
TTITLE3=On
TTITLE4=Ernest Tubb - Another Story - CD 3 - 05 - The Day The World Stood Stil
TTITLE4=l
TTITLE5=Ernest Tubb - Another Story - CD 3 - 06 - Just For You
TTITLE6=Ernest Tubb - Another Story - CD 3 - 07 - Silent Partner
TTITLE7=Ernest Tubb - Another Story - CD 3 - 08 - Jamming With C And C (Instru
TTITLE7=mental)
TTITLE8=Ernest Tubb - Another Story - CD 3 - 09 - Mama Who Was That Man
TTITLE9=Ernest Tubb - Another Story - CD 3 - 10 - Don't Squeeze My Sharmon
TTITLE10=Ernest Tubb - Another Story - CD 3 - 11 - Sing Me Back Home
TTITLE11=Ernest Tubb - Another Story - CD 3 - 12 - A Dime At A Time
TTITLE12=Ernest Tubb - Another Story - CD 3 - 13  - The Bottle Let Me Down
TTITLE13=Ernest Tubb - Another Story - CD 3 - 14  - Destination Atlanta GA
TTITLE14=Ernest Tubb - Another Story - CD 3 - 15 - The Image Of Me
TTITLE15=Ernest Tubb - Another Story - CD 3 - 16 - That's The Chance I'll Have
TTITLE15=To Take
TTITLE16=Ernest Tubb - Another Story - CD 3 - 17 - Today
TTITLE17=Ernest Tubb - Another Story - CD 3 - 18 - She Went A Little Bit Farth
TTITLE17=er
TTITLE18=Ernest Tubb - Another Story - CD 3 - 19 - Saturday Satin Sunday Saint
TTITLE19=Ernest Tubb - Another Story - CD 3 - 20 - Tommy's Doll
TTITLE20=Ernest Tubb - Another Story - CD 3 - 21 - One More Memory
TTITLE21=Ernest Tubb - Another Story - CD 3 - 22 - If We Put Our Heads Togethe
TTITLE21=r
TTITLE22=Ernest Tubb - Another Story - CD 3 - 23 - I Chased You Till You Caugh
TTITLE22=t Me
TTITLE23=Ernest Tubb - Another Story - CD 3 - 24 - I Won't Cheat Again On You
TTITLE24=Ernest Tubb - Another Story - CD 3 - 25 - Who's Gonna Take The Garbag
TTITLE24=e Out
TTITLE25=Ernest Tubb - Another Story - CD 3 - 26 - Let's Turn Back The Years
TTITLE26=Ernest Tubb - Another Story - CD 3 - 27 - Folsom Prison Blues
TTITLE27=Ernest Tubb - Another Story - CD 3 - 28 - Making Believe
TTITLE28=Ernest Tubb - Another Story - CD 3 - 29 - Holding On To Nothing
TTITLE29=Ernest Tubb - Another Story - CD 3 - 30 - Somewhere Between
EXTD=
EXTT0=
EXTT1=
EXTT2=
EXTT3=
EXTT4=
EXTT5=
EXTT6=
EXTT7=
EXTT8=
EXTT9=
EXTT10=
EXTT11=
EXTT12=
EXTT13=
EXTT14=
EXTT15=
EXTT16=
EXTT17=
EXTT18=
EXTT19=
EXTT20=
EXTT21=
EXTT22=
EXTT23=
EXTT24=
EXTT25=
EXTT26=
EXTT27=
EXTT28=
EXTT29=
PLAYORDER=
